<?xml version="1.0" encoding="utf-8"?>
<!-- Generator: Adobe Illustrator 17.0.0, SVG Export Plug-In . SVG Version: 6.00 Build 0)  -->
<!DOCTYPE svg PUBLIC "-//W3C//DTD SVG 1.1//EN" "http://www.w3.org/Graphics/SVG/1.1/DTD/svg11.dtd">
<svg version="1.1" id="Warstwa_4" xmlns="http://www.w3.org/2000/svg" xmlns:xlink="http://www.w3.org/1999/xlink" x="0px" y="0px"
	 width="20.021px" height="20px" viewBox="0 0 20.021 20" enable-background="new 0 0 20.021 20" xml:space="preserve">
<rect x="1.021" y="3.021" fill="none" stroke="#5384FF" stroke-width="2" stroke-linecap="round" stroke-linejoin="round" stroke-miterlimit="10" width="18" height="16"/>
<line fill="none" stroke="#5384FF" stroke-width="2" stroke-linecap="round" stroke-linejoin="round" stroke-miterlimit="10" x1="14.021" y1="1.021" x2="14.021" y2="5.021"/>
<line fill="none" stroke="#5384FF" stroke-width="2" stroke-linecap="round" stroke-linejoin="round" stroke-miterlimit="10" x1="6.021" y1="1.021" x2="6.021" y2="5.021"/>
<path fill="#5384FF" d="M6.552,11.021H5.49c-0.259,0-0.469-0.21-0.469-0.469V9.49c0-0.259,0.21-0.469,0.469-0.469h1.063
	c0.259,0,0.469,0.21,0.469,0.469v1.063C7.021,10.811,6.811,11.021,6.552,11.021z"/>
<path fill="#5384FF" d="M10.552,11.021H9.49c-0.259,0-0.469-0.21-0.469-0.469V9.49c0-0.259,0.21-0.469,0.469-0.469h1.063
	c0.259,0,0.469,0.21,0.469,0.469v1.063C11.021,10.811,10.811,11.021,10.552,11.021z"/>
<path fill="#5384FF" d="M14.552,11.021H13.49c-0.259,0-0.469-0.21-0.469-0.469V9.49c0-0.259,0.21-0.469,0.469-0.469h1.063
	c0.259,0,0.469,0.21,0.469,0.469v1.063C15.021,10.811,14.811,11.021,14.552,11.021z"/>
<path fill="#5384FF" d="M6.552,15.021H5.49c-0.259,0-0.469-0.21-0.469-0.469V13.49c0-0.259,0.21-0.469,0.469-0.469h1.063
	c0.259,0,0.469,0.21,0.469,0.469v1.063C7.021,14.811,6.811,15.021,6.552,15.021z"/>
<path fill="#5384FF" d="M10.552,15.021H9.49c-0.259,0-0.469-0.21-0.469-0.469V13.49c0-0.259,0.21-0.469,0.469-0.469h1.063
	c0.259,0,0.469,0.21,0.469,0.469v1.063C11.021,14.811,10.811,15.021,10.552,15.021z"/>
<path fill="#5384FF" d="M14.552,15.021H13.49c-0.259,0-0.469-0.21-0.469-0.469V13.49c0-0.259,0.21-0.469,0.469-0.469h1.063
	c0.259,0,0.469,0.21,0.469,0.469v1.063C15.021,14.811,14.811,15.021,14.552,15.021z"/>
</svg>
